<svg aria-hidden="true" style="position: absolute; width: 0; height: 0; overflow: hidden;" version="1.1" xmlns="http://www.w3.org/2000/svg" xmlns:xlink="http://www.w3.org/1999/xlink">
<defs>
<symbol id="icon-fb" viewBox="0 0 31 32">
<path fill="#5243c2" style="fill: var(--color1, #5243c2)" d="M15.515 2.989c-7.141 0-12.929 5.788-12.929 12.929 0 6.453 4.728 11.802 10.91 12.773v-9.036h-3.284v-3.737h3.284v-2.848c0-3.24 1.929-5.029 4.883-5.029 1.415 0 2.894 0.252 2.894 0.252v3.181h-1.629c-1.607 0-2.107 0.997-2.107 2.019v2.426h3.585l-0.573 3.737h-3.013v9.036c6.18-0.97 10.908-6.321 10.908-12.773 0-7.141-5.788-12.929-12.929-12.929z"></path>
</symbol>
<symbol id="icon-nstagram" viewBox="0 0 32 32">
<path fill="#7b61ff" style="fill: var(--color2, #7b61ff)" d="M15.515 2.989c3.513 0 3.951 0.013 5.329 0.078 1.377 0.065 2.314 0.281 3.139 0.601 0.853 0.328 1.572 0.773 2.291 1.491 0.657 0.646 1.166 1.428 1.491 2.291 0.319 0.824 0.537 1.762 0.601 3.139 0.061 1.378 0.078 1.817 0.078 5.329s-0.013 3.951-0.078 5.329c-0.065 1.377-0.282 2.314-0.601 3.139-0.324 0.863-0.832 1.645-1.491 2.291-0.646 0.657-1.428 1.166-2.291 1.491-0.824 0.319-1.762 0.537-3.139 0.601-1.378 0.061-1.817 0.078-5.329 0.078s-3.951-0.013-5.329-0.078c-1.377-0.065-2.314-0.282-3.139-0.601-0.863-0.324-1.645-0.833-2.291-1.491-0.658-0.646-1.166-1.428-1.491-2.291-0.321-0.824-0.537-1.762-0.601-3.139-0.061-1.378-0.078-1.817-0.078-5.329s0.013-3.951 0.078-5.329c0.065-1.378 0.281-2.314 0.601-3.139 0.324-0.863 0.832-1.646 1.491-2.291 0.646-0.658 1.428-1.167 2.291-1.491 0.825-0.321 1.761-0.537 3.139-0.601 1.378-0.061 1.817-0.078 5.329-0.078zM15.515 9.454c-1.715 0-3.359 0.681-4.571 1.893s-1.893 2.857-1.893 4.571c0 1.715 0.681 3.359 1.893 4.571s2.857 1.893 4.571 1.893 3.359-0.681 4.571-1.893c1.212-1.212 1.894-2.857 1.894-4.571s-0.681-3.359-1.894-4.571c-1.212-1.212-2.857-1.893-4.571-1.893zM23.919 9.131c0-0.429-0.17-0.84-0.473-1.143s-0.714-0.473-1.143-0.473c-0.429 0-0.84 0.17-1.143 0.473s-0.473 0.714-0.473 1.143 0.17 0.84 0.473 1.143c0.303 0.303 0.714 0.473 1.143 0.473s0.84-0.17 1.143-0.473c0.303-0.303 0.473-0.714 0.473-1.143zM15.515 12.040c1.029 0 2.015 0.409 2.743 1.136s1.136 1.714 1.136 2.743c0 1.029-0.409 2.015-1.136 2.743s-1.714 1.136-2.743 1.136-2.015-0.409-2.743-1.136c-0.727-0.727-1.136-1.714-1.136-2.743s0.409-2.015 1.136-2.743c0.727-0.727 1.714-1.136 2.743-1.136z"></path>
</symbol>
<symbol id="icon-section-business-calendar-2-line" viewBox="0 0 32 32">
<path fill="#979797" style="fill: var(--color3, #979797)" d="M22.667 5.333h5.333c0.354 0 0.693 0.14 0.943 0.391s0.39 0.589 0.39 0.943v21.333c0 0.354-0.14 0.693-0.39 0.943s-0.589 0.391-0.943 0.391h-24c-0.354 0-0.693-0.141-0.943-0.391s-0.391-0.589-0.391-0.943v-21.333c0-0.354 0.14-0.693 0.391-0.943s0.589-0.391 0.943-0.391h5.333v-2.667h2.667v2.667h8v-2.667h2.667v2.667zM26.667 16h-21.333v10.667h21.333v-10.667zM20 8h-8v2.667h-2.667v-2.667h-4v5.333h21.333v-5.333h-4v2.667h-2.667v-2.667zM8 18.666h2.667v2.667h-2.667v-2.667zM14.667 18.666h2.667v2.667h-2.667v-2.667zM21.333 18.666h2.667v2.667h-2.667v-2.667z"></path>
</symbol>
<symbol id="icon-section-business-calendar-event-fill" viewBox="0 0 24 24">
<path fill="#ffa800" style="fill: var(--color4, #ffa800)" d="M17.6667 3H21.6667C21.9319 3 22.1863 3.10536 22.3738 3.29289C22.5613 3.48043 22.6667 3.73478 22.6667 4V20C22.6667 20.2652 22.5613 20.5196 22.3738 20.7071C22.1863 20.8946 21.9319 21 21.6667 21H3.66669C3.40147 21 3.14712 20.8946 2.95958 20.7071C2.77204 20.5196 2.66669 20.2652 2.66669 20V4C2.66669 3.73478 2.77204 3.48043 2.95958 3.29289C3.14712 3.10536 3.40147 3 3.66669 3H7.66669V1H9.66669V3H15.6667V1H17.6667V3ZM4.66669 9V19H20.6667V9H4.66669ZM6.66669 13H11.6667V17H6.66669V13Z"></path>
</symbol>
<symbol id="icon-section-business-mail-line" viewBox="0 0 32 32">
<path fill="#ffa800" style="fill: var(--color4, #ffa800)" d="M4 4h24c0.354 0 0.693 0.14 0.943 0.391s0.391 0.589 0.391 0.943v21.333c0 0.354-0.141 0.693-0.391 0.943s-0.589 0.391-0.943 0.391h-24c-0.354 0-0.693-0.141-0.943-0.391s-0.391-0.589-0.391-0.943v-21.333c0-0.354 0.14-0.693 0.391-0.943s0.589-0.391 0.943-0.391zM26.667 9.651l-10.571 9.467-10.763-9.496v15.712h21.333v-15.683zM6.015 6.667l10.067 8.883 9.921-8.883h-19.988z"></path>
</symbol>
<symbol id="icon-section-communication-chat-3-line" viewBox="0 0 32 32">
<path fill="#979797" style="fill: var(--color3, #979797)" d="M9.721 27.765l-7.055 1.568 1.568-7.055c-1.033-1.932-1.571-4.089-1.568-6.279 0-7.364 5.969-13.333 13.333-13.333s13.333 5.969 13.333 13.333c0 7.364-5.969 13.333-13.333 13.333-2.19 0.003-4.347-0.535-6.279-1.568zM10.108 24.948l0.871 0.467c1.545 0.825 3.27 1.256 5.021 1.252 2.11 0 4.172-0.626 5.926-1.798s3.121-2.838 3.929-4.787c0.807-1.949 1.019-4.094 0.607-6.163s-1.427-3.97-2.919-5.462-3.392-2.508-5.461-2.919c-2.069-0.412-4.214-0.2-6.163 0.607s-3.615 2.175-4.787 3.929c-1.172 1.754-1.798 3.816-1.798 5.926 0 1.779 0.433 3.491 1.253 5.021l0.465 0.871-0.873 3.929 3.929-0.873z"></path>
</symbol>
<symbol id="icon-section-logo" viewBox="0 0 78 32">
<path fill="#fff" style="fill: var(--color5, #fff)" d="M0.043 21.536c0.484-0.384 0.704-0.562 0.661-0.533 1.394-1.152 2.489-2.098 3.285-2.837 0.811-0.74 1.493-1.515 2.048-2.325s0.832-1.6 0.832-2.368c0-0.583-0.135-1.038-0.405-1.365s-0.676-0.491-1.216-0.491c-0.54 0-0.967 0.206-1.28 0.619-0.299 0.398-0.448 0.967-0.448 1.707h-3.52c0.028-1.209 0.284-2.219 0.768-3.029 0.498-0.811 1.145-1.408 1.941-1.792 0.811-0.384 1.707-0.576 2.688-0.576 1.692 0 2.965 0.434 3.819 1.301 0.868 0.868 1.301 1.998 1.301 3.392 0 1.522-0.519 2.937-1.557 4.245-1.038 1.294-2.361 2.56-3.968 3.797h5.76v2.965h-10.709v-2.709z"></path>
<path fill="#fff" style="fill: var(--color5, #fff)" d="M16.369 14.539c0.427-0.654 0.96-1.166 1.6-1.536 0.64-0.384 1.351-0.576 2.133-0.576v3.861h-1.003c-0.91 0-1.593 0.199-2.048 0.597-0.455 0.384-0.683 1.067-0.683 2.048v5.525h-3.648v-11.904h3.648v1.984z"></path>
<path fill="#fff" style="fill: var(--color5, #fff)" d="M23.681 11.317c-0.64 0-1.166-0.185-1.579-0.555-0.398-0.384-0.597-0.853-0.597-1.408 0-0.569 0.199-1.038 0.597-1.408 0.412-0.384 0.939-0.576 1.579-0.576 0.626 0 1.138 0.192 1.536 0.576 0.412 0.37 0.619 0.839 0.619 1.408 0 0.555-0.206 1.024-0.619 1.408-0.398 0.37-0.91 0.555-1.536 0.555zM25.494 12.555v11.904h-3.648v-11.904h3.648z"></path>
<path fill="#fff" style="fill: var(--color5, #fff)" d="M32.98 24.629c-1.038 0-1.963-0.178-2.773-0.533s-1.451-0.839-1.92-1.451c-0.469-0.626-0.732-1.323-0.789-2.091h3.605c0.043 0.412 0.235 0.747 0.576 1.003s0.761 0.384 1.259 0.384c0.455 0 0.804-0.085 1.045-0.256 0.256-0.185 0.384-0.42 0.384-0.704 0-0.341-0.178-0.59-0.533-0.747-0.356-0.171-0.932-0.356-1.728-0.555-0.853-0.199-1.564-0.405-2.133-0.619-0.569-0.228-1.060-0.576-1.472-1.045-0.412-0.484-0.619-1.131-0.619-1.941 0-0.683 0.185-1.301 0.555-1.856 0.384-0.569 0.939-1.017 1.664-1.344 0.74-0.327 1.614-0.491 2.624-0.491 1.493 0 2.667 0.37 3.52 1.109 0.868 0.74 1.365 1.721 1.493 2.944h-3.371c-0.057-0.412-0.242-0.74-0.555-0.981-0.299-0.242-0.697-0.363-1.195-0.363-0.427 0-0.754 0.085-0.981 0.256-0.228 0.156-0.341 0.377-0.341 0.661 0 0.341 0.178 0.597 0.533 0.768 0.37 0.171 0.939 0.341 1.707 0.512 0.882 0.228 1.6 0.455 2.155 0.683 0.555 0.213 1.038 0.569 1.451 1.067 0.427 0.484 0.647 1.138 0.661 1.963 0 0.697-0.199 1.323-0.597 1.877-0.384 0.54-0.946 0.967-1.685 1.28-0.725 0.313-1.572 0.469-2.539 0.469z"></path>
<path fill="#fff" style="fill: var(--color5, #fff)" d="M55.223 12.427c1.479 0 2.652 0.448 3.52 1.344 0.882 0.896 1.323 2.14 1.323 3.733v6.955h-3.627v-6.464c0-0.768-0.206-1.358-0.619-1.771-0.398-0.427-0.953-0.64-1.664-0.64s-1.273 0.213-1.685 0.64c-0.398 0.412-0.597 1.003-0.597 1.771v6.464h-3.627v-6.464c0-0.768-0.206-1.358-0.619-1.771-0.398-0.427-0.953-0.64-1.664-0.64s-1.273 0.213-1.685 0.64c-0.398 0.412-0.597 1.003-0.597 1.771v6.464h-3.648v-11.904h3.648v1.493c0.37-0.498 0.853-0.889 1.451-1.173 0.597-0.299 1.273-0.448 2.027-0.448 0.896 0 1.692 0.192 2.389 0.576 0.711 0.384 1.266 0.932 1.664 1.643 0.412-0.654 0.974-1.188 1.685-1.6s1.486-0.619 2.325-0.619z"></path>
<path fill="#7b61ff" style="fill: var(--color2, #7b61ff)" d="M64.774 5.78c-0.309-0.103-0.312-0.27 0.006-0.376l11.311-3.77c0.314-0.104 0.493 0.071 0.405 0.378l-3.232 11.31c-0.089 0.313-0.27 0.324-0.402 0.027l-2.13-4.793 3.556-4.741-4.741 3.556-4.773-1.591z"></path>
</symbol>
<symbol id="icon-section-logo-f" viewBox="0 0 78 32">
<path fill="#161414" style="fill: var(--color6, #161414)" d="M0.043 21.276c0.484-0.384 0.704-0.562 0.661-0.533 1.394-1.152 2.489-2.098 3.285-2.837 0.811-0.74 1.493-1.515 2.048-2.325s0.832-1.6 0.832-2.368c0-0.583-0.135-1.038-0.405-1.365s-0.676-0.491-1.216-0.491c-0.54 0-0.967 0.206-1.28 0.619-0.299 0.398-0.448 0.967-0.448 1.707h-3.52c0.028-1.209 0.284-2.219 0.768-3.029 0.498-0.811 1.145-1.408 1.941-1.792 0.811-0.384 1.707-0.576 2.688-0.576 1.692 0 2.965 0.434 3.819 1.301 0.868 0.868 1.301 1.998 1.301 3.392 0 1.522-0.519 2.937-1.557 4.245-1.038 1.294-2.361 2.56-3.968 3.797h5.76v2.965h-10.709v-2.709z"></path>
<path fill="#161414" style="fill: var(--color6, #161414)" d="M16.369 14.279c0.427-0.654 0.96-1.166 1.6-1.536 0.64-0.384 1.351-0.576 2.133-0.576v3.861h-1.003c-0.91 0-1.593 0.199-2.048 0.597-0.455 0.384-0.683 1.067-0.683 2.048v5.525h-3.648v-11.904h3.648v1.984z"></path>
<path fill="#161414" style="fill: var(--color6, #161414)" d="M23.681 11.058c-0.64 0-1.166-0.185-1.579-0.555-0.398-0.384-0.597-0.853-0.597-1.408 0-0.569 0.199-1.038 0.597-1.408 0.412-0.384 0.939-0.576 1.579-0.576 0.626 0 1.138 0.192 1.536 0.576 0.412 0.37 0.619 0.839 0.619 1.408 0 0.555-0.206 1.024-0.619 1.408-0.398 0.37-0.91 0.555-1.536 0.555zM25.494 12.295v11.904h-3.648v-11.904h3.648z"></path>
<path fill="#161414" style="fill: var(--color6, #161414)" d="M32.98 24.37c-1.038 0-1.963-0.178-2.773-0.533s-1.451-0.839-1.92-1.451c-0.469-0.626-0.732-1.323-0.789-2.091h3.605c0.043 0.412 0.235 0.747 0.576 1.003s0.761 0.384 1.259 0.384c0.455 0 0.804-0.085 1.045-0.256 0.256-0.185 0.384-0.42 0.384-0.704 0-0.341-0.178-0.59-0.533-0.747-0.356-0.171-0.932-0.356-1.728-0.555-0.853-0.199-1.564-0.405-2.133-0.619-0.569-0.228-1.060-0.576-1.472-1.045-0.412-0.484-0.619-1.131-0.619-1.941 0-0.683 0.185-1.301 0.555-1.856 0.384-0.569 0.939-1.017 1.664-1.344 0.74-0.327 1.614-0.491 2.624-0.491 1.493 0 2.667 0.37 3.52 1.109 0.868 0.74 1.365 1.721 1.493 2.944h-3.371c-0.057-0.412-0.242-0.74-0.555-0.981-0.299-0.242-0.697-0.363-1.195-0.363-0.427 0-0.754 0.085-0.981 0.256-0.228 0.156-0.341 0.377-0.341 0.661 0 0.341 0.178 0.597 0.533 0.768 0.37 0.171 0.939 0.341 1.707 0.512 0.882 0.228 1.6 0.455 2.155 0.683 0.555 0.213 1.038 0.569 1.451 1.067 0.427 0.484 0.647 1.138 0.661 1.963 0 0.697-0.199 1.323-0.597 1.877-0.384 0.54-0.946 0.967-1.685 1.28-0.725 0.313-1.572 0.469-2.539 0.469z"></path>
<path fill="#161414" style="fill: var(--color6, #161414)" d="M55.223 12.167c1.479 0 2.652 0.448 3.52 1.344 0.882 0.896 1.323 2.14 1.323 3.733v6.955h-3.627v-6.464c0-0.768-0.206-1.358-0.619-1.771-0.398-0.427-0.953-0.64-1.664-0.64s-1.273 0.213-1.685 0.64c-0.398 0.412-0.597 1.003-0.597 1.771v6.464h-3.627v-6.464c0-0.768-0.206-1.358-0.619-1.771-0.398-0.427-0.953-0.64-1.664-0.64s-1.273 0.213-1.685 0.64c-0.398 0.412-0.597 1.003-0.597 1.771v6.464h-3.648v-11.904h3.648v1.493c0.37-0.498 0.853-0.889 1.451-1.173 0.597-0.299 1.273-0.448 2.027-0.448 0.896 0 1.692 0.192 2.389 0.576 0.711 0.384 1.266 0.932 1.664 1.643 0.412-0.654 0.974-1.188 1.685-1.6s1.486-0.619 2.325-0.619z"></path>
<path fill="#7b61ff" style="fill: var(--color2, #7b61ff)" d="M64.774 5.52c-0.309-0.103-0.312-0.27 0.006-0.376l11.311-3.77c0.313-0.104 0.493 0.071 0.405 0.378l-3.232 11.31c-0.089 0.313-0.27 0.324-0.402 0.027l-2.13-4.793 3.556-4.741-4.741 3.556-4.773-1.591z"></path>
</symbol>
<symbol id="icon-section-map-map-pin-line" viewBox="0 0 16 16">
<path fill="#7b61ff" style="fill: var(--color2, #7b61ff)" d="M8 13.9333L11.3 10.6333C11.9526 9.98066 12.397 9.14914 12.577 8.2439C12.7571 7.33867 12.6646 6.40039 12.3114 5.54769C11.9582 4.695 11.36 3.96619 10.5926 3.45343C9.82519 2.94068 8.92296 2.66699 8 2.66699C7.07704 2.66699 6.17481 2.94068 5.40739 3.45343C4.63997 3.96619 4.04183 4.695 3.68861 5.54769C3.33539 6.40039 3.24294 7.33867 3.42297 8.2439C3.603 9.14914 4.04741 9.98066 4.7 10.6333L8 13.9333ZM8 15.8187L3.75734 11.576C2.91823 10.7369 2.34679 9.66777 2.11529 8.50389C1.88378 7.34 2.0026 6.13361 2.45673 5.03726C2.91086 3.9409 3.6799 3.00384 4.66659 2.34455C5.65328 1.68527 6.81332 1.33337 8 1.33337C9.18669 1.33337 10.3467 1.68527 11.3334 2.34455C12.3201 3.00384 13.0891 3.9409 13.5433 5.03726C13.9974 6.13361 14.1162 7.34 13.8847 8.50389C13.6532 9.66777 13.0818 10.7369 12.2427 11.576L8 15.8187ZM8 8.66665C8.35362 8.66665 8.69276 8.52618 8.94281 8.27613C9.19286 8.02608 9.33334 7.68694 9.33334 7.33332C9.33334 6.9797 9.19286 6.64056 8.94281 6.39051C8.69276 6.14046 8.35362 5.99999 8 5.99999C7.64638 5.99999 7.30724 6.14046 7.05719 6.39051C6.80715 6.64056 6.66667 6.9797 6.66667 7.33332C6.66667 7.68694 6.80715 8.02608 7.05719 8.27613C7.30724 8.52618 7.64638 8.66665 8 8.66665ZM8 9.99999C7.29276 9.99999 6.61448 9.71904 6.11438 9.21894C5.61429 8.71884 5.33334 8.04057 5.33334 7.33332C5.33334 6.62608 5.61429 5.9478 6.11438 5.4477C6.61448 4.94761 7.29276 4.66666 8 4.66666C8.70725 4.66666 9.38552 4.94761 9.88562 5.4477C10.3857 5.9478 10.6667 6.62608 10.6667 7.33332C10.6667 8.04057 10.3857 8.71884 9.88562 9.21894C9.38552 9.71904 8.70725 9.99999 8 9.99999Z"></path>
</symbol>
<symbol id="icon-section-map-riding-line" viewBox="0 0 24 24">
<path fill="#ffa800" style="fill: var(--color4, #ffa800)" d="M5.5 21C4.90905 21 4.32389 20.8836 3.77792 20.6575C3.23196 20.4313 2.73588 20.0998 2.31802 19.682C1.90016 19.2641 1.56869 18.768 1.34254 18.2221C1.1164 17.6761 1 17.0909 1 16.5C1 15.9091 1.1164 15.3239 1.34254 14.7779C1.56869 14.232 1.90016 13.7359 2.31802 13.318C2.73588 12.9002 3.23196 12.5687 3.77792 12.3425C4.32389 12.1164 4.90905 12 5.5 12C6.69347 12 7.83807 12.4741 8.68198 13.318C9.52589 14.1619 10 15.3065 10 16.5C10 17.6935 9.52589 18.8381 8.68198 19.682C7.83807 20.5259 6.69347 21 5.5 21ZM5.5 19C6.16304 19 6.79893 18.7366 7.26777 18.2678C7.73661 17.7989 8 17.163 8 16.5C8 15.837 7.73661 15.2011 7.26777 14.7322C6.79893 14.2634 6.16304 14 5.5 14C4.83696 14 4.20107 14.2634 3.73223 14.7322C3.26339 15.2011 3 15.837 3 16.5C3 17.163 3.26339 17.7989 3.73223 18.2678C4.20107 18.7366 4.83696 19 5.5 19ZM18.5 21C17.9091 21 17.3239 20.8836 16.7779 20.6575C16.232 20.4313 15.7359 20.0998 15.318 19.682C14.9002 19.2641 14.5687 18.768 14.3425 18.2221C14.1164 17.6761 14 17.0909 14 16.5C14 15.9091 14.1164 15.3239 14.3425 14.7779C14.5687 14.232 14.9002 13.7359 15.318 13.318C15.7359 12.9002 16.232 12.5687 16.7779 12.3425C17.3239 12.1164 17.9091 12 18.5 12C19.6935 12 20.8381 12.4741 21.682 13.318C22.5259 14.1619 23 15.3065 23 16.5C23 17.6935 22.5259 18.8381 21.682 19.682C20.8381 20.5259 19.6935 21 18.5 21ZM18.5 19C19.163 19 19.7989 18.7366 20.2678 18.2678C20.7366 17.7989 21 17.163 21 16.5C21 15.837 20.7366 15.2011 20.2678 14.7322C19.7989 14.2634 19.163 14 18.5 14C17.837 14 17.2011 14.2634 16.7322 14.7322C16.2634 15.2011 16 15.837 16 16.5C16 17.163 16.2634 17.7989 16.7322 18.2678C17.2011 18.7366 17.837 19 18.5 19ZM11.023 10.305L13 12V18H11V13L8.281 10.734C8.03904 10.5677 7.83666 10.3502 7.68822 10.0969C7.53977 9.84363 7.44892 9.56076 7.4221 9.26841C7.39528 8.97605 7.43315 8.68137 7.53303 8.4053C7.6329 8.12923 7.79233 7.87853 8 7.671L10.828 4.843C11.0137 4.6572 11.2342 4.50981 11.4769 4.40925C11.7197 4.30869 11.9798 4.25693 12.2425 4.25693C12.5052 4.25693 12.7653 4.30869 13.0081 4.40925C13.2508 4.50981 13.4713 4.6572 13.657 4.843L15.071 6.257C16.13 7.31982 17.5038 8.01248 18.988 8.232L18.978 10.247C16.9642 10.0152 15.0884 9.10742 13.657 7.672L11.023 10.305ZM16 5C15.4696 5 14.9609 4.78929 14.5858 4.41421C14.2107 4.03914 14 3.53043 14 3C14 2.46957 14.2107 1.96086 14.5858 1.58579C14.9609 1.21071 15.4696 1 16 1C16.5304 1 17.0391 1.21071 17.4142 1.58579C17.7893 1.96086 18 2.46957 18 3C18 3.53043 17.7893 4.03914 17.4142 4.41421C17.0391 4.78929 16.5304 5 16 5Z"></path>
</symbol>
<symbol id="icon-section-primary-business-group" viewBox="0 0 32 32">
<path fill="#fff" style="fill: var(--color5, #fff)" d="M16 0c-8.836 0-16 7.164-16 16s7.164 16 16 16 16-7.164 16-16-7.164-16-16-16zM17.333 21.409v-4.076h3.992c-0.079 1.524-0.283 2.987-0.608 4.372-1.097-0.16-2.232-0.251-3.384-0.296zM19.943 24.292c-0.665 1.773-1.545 3.329-2.609 4.608v-4.827c0.888 0.037 1.759 0.108 2.609 0.219zM17.333 14.667v-4.020c1.157-0.045 2.295-0.137 3.397-0.299 0.317 1.369 0.519 2.815 0.595 4.319h-3.992zM17.333 7.981v-4.881c1.075 1.292 1.961 2.867 2.628 4.661-0.856 0.112-1.733 0.183-2.628 0.22zM20.937 3.625c1.649 0.661 3.139 1.637 4.387 2.861-0.856 0.312-1.748 0.589-2.692 0.809-0.459-1.323-1.033-2.547-1.695-3.671zM11.283 21.705c-0.325-1.385-0.531-2.848-0.608-4.372h3.992v4.076c-1.153 0.045-2.285 0.136-3.384 0.296zM14.667 24.073v4.827c-1.064-1.279-1.944-2.835-2.609-4.608 0.851-0.111 1.721-0.181 2.609-0.219zM10.675 14.667c0.076-1.504 0.276-2.949 0.595-4.319 1.103 0.161 2.24 0.253 3.397 0.299v4.020h-3.992zM12.040 7.761c0.667-1.795 1.553-3.369 2.627-4.661v4.881c-0.895-0.037-1.772-0.108-2.627-0.22zM9.367 7.295c-0.944-0.22-1.836-0.497-2.691-0.809 1.249-1.224 2.737-2.2 4.387-2.861-0.661 1.125-1.236 2.349-1.696 3.671zM8.635 9.852c-0.352 1.535-0.579 3.147-0.656 4.815h-5.244c0.22-2.211 0.985-4.263 2.156-6.024 1.173 0.481 2.421 0.893 3.744 1.209zM8.647 22.201c-1.317 0.315-2.56 0.723-3.729 1.2-1.187-1.771-1.961-3.839-2.183-6.068h5.245c0.077 1.687 0.308 3.317 0.667 4.868zM9.384 24.757c0.456 1.301 1.024 2.508 1.676 3.616-1.631-0.653-3.101-1.615-4.341-2.82 0.848-0.305 1.732-0.58 2.665-0.796zM22.616 24.757c0.933 0.217 1.816 0.489 2.665 0.796-1.241 1.204-2.712 2.167-4.343 2.821 0.652-1.109 1.22-2.316 1.677-3.617zM23.353 22.201c0.36-1.551 0.589-3.181 0.668-4.868h5.245c-0.223 2.229-0.997 4.297-2.184 6.068-1.169-0.477-2.413-0.885-3.729-1.2zM24.021 14.667c-0.077-1.668-0.305-3.28-0.656-4.815 1.323-0.316 2.572-0.728 3.745-1.209 1.169 1.761 1.935 3.813 2.155 6.024h-5.244z"></path>
</symbol>
<symbol id="icon-section-primary-system-arrow-right-fill" viewBox="0 0 32 32">
<path fill="#fff" style="fill: var(--color5, #fff)" d="M16 17.333h-10.667v-2.667h10.667v-9.333l10.667 10.667-10.667 10.667v-9.333z"></path>
</symbol>
<symbol id="icon-section-primary-system-search-line" viewBox="0 0 32 32">
<path fill="#fff" style="fill: var(--color5, #fff)" d="M24.041 22.156l5.711 5.709-1.887 1.887-5.709-5.711c-2.124 1.703-4.767 2.629-7.489 2.625-6.624 0-12-5.376-12-12s5.376-12 12-12c6.624 0 12 5.376 12 12 0.004 2.723-0.922 5.365-2.625 7.489zM21.367 21.167c1.692-1.74 2.637-4.073 2.633-6.5 0-5.157-4.177-9.333-9.333-9.333-5.157 0-9.333 4.176-9.333 9.333 0 5.156 4.176 9.333 9.333 9.333 2.427 0.004 4.76-0.941 6.5-2.633l0.2-0.2z"></path>
</symbol>
<symbol id="icon-section-rating-system-star-fill" viewBox="0 0 16 16">
<path fill="#ffa800" style="fill: var(--color4, #ffa800)" d="M7.99999 12.1733L3.29799 14.8053L4.34799 9.51998L0.391327 5.86131L5.74266 5.22665L7.99999 0.333313L10.2573 5.22665L15.6087 5.86131L11.652 9.51998L12.702 14.8053L7.99999 12.1733Z"></path>
</symbol>
<symbol id="icon-section-rating-system-star-line" viewBox="0 0 16 16">
<path fill="#ffa800" style="fill: var(--color4, #ffa800)" d="M7.99999 12.1733L3.29799 14.8053L4.34799 9.51998L0.391327 5.86131L5.74266 5.22665L7.99999 0.333313L10.2573 5.22665L15.6087 5.86131L11.652 9.51998L12.702 14.8053L7.99999 12.1733ZM7.99999 10.6453L10.8313 12.23L10.1987 9.04798L12.5807 6.84465L9.35866 6.46265L7.99999 3.51665L6.64133 6.46331L3.41933 6.84465L5.80133 9.04798L5.16866 12.23L7.99999 10.6453Z"></path>
</symbol>
<symbol id="icon-section-secondary-system-arrow-right-line" viewBox="0 0 20 20">
<path fill="#7b61ff" style="fill: var(--color2, #7b61ff)" d="M13.4767 9.16664L9.00671 4.69664L10.185 3.51831L16.6667 9.99998L10.185 16.4816L9.00671 15.3033L13.4767 10.8333H3.33337V9.16664H13.4767Z"></path>
</symbol>
<symbol id="icon-section-user-group" viewBox="0 0 32 32">
<path fill="#979797" style="fill: var(--color3, #979797)" d="M5.333 29.333c0-2.829 1.124-5.542 3.124-7.542s4.713-3.124 7.542-3.124 5.542 1.124 7.543 3.124c2 2 3.124 4.714 3.124 7.542h-2.667c0-2.122-0.843-4.156-2.343-5.657s-3.535-2.343-5.657-2.343-4.157 0.843-5.657 2.343c-1.5 1.5-2.343 3.535-2.343 5.657h-2.667zM16 17.334c-4.42 0-8-3.58-8-8s3.58-8 8-8c4.42 0 8 3.58 8 8s-3.58 8-8 8zM16 14.667c2.947 0 5.333-2.387 5.333-5.333s-2.387-5.333-5.333-5.333c-2.947 0-5.333 2.387-5.333 5.333s2.387 5.333 5.333 5.333z"></path>
</symbol>
<symbol id="icon-section-user-group-line" viewBox="0 0 24 24">
<path fill="#ffa800" style="fill: var(--color4, #ffa800)" d="M2.33337 22C2.33337 19.8783 3.17623 17.8434 4.67652 16.3431C6.17681 14.8429 8.21164 14 10.3334 14C12.4551 14 14.4899 14.8429 15.9902 16.3431C17.4905 17.8434 18.3334 19.8783 18.3334 22H16.3334C16.3334 20.4087 15.7012 18.8826 14.576 17.7574C13.4508 16.6321 11.9247 16 10.3334 16C8.74207 16 7.21595 16.6321 6.09073 17.7574C4.96552 18.8826 4.33337 20.4087 4.33337 22H2.33337ZM10.3334 13C7.01837 13 4.33337 10.315 4.33337 7C4.33337 3.685 7.01837 1 10.3334 1C13.6484 1 16.3334 3.685 16.3334 7C16.3334 10.315 13.6484 13 10.3334 13ZM10.3334 11C12.5434 11 14.3334 9.21 14.3334 7C14.3334 4.79 12.5434 3 10.3334 3C8.12337 3 6.33337 4.79 6.33337 7C6.33337 9.21 8.12337 11 10.3334 11ZM18.6174 14.703C20.0227 15.3359 21.2154 16.3612 22.052 17.6557C22.8886 18.9502 23.3335 20.4587 23.3334 22H21.3334C21.3336 20.844 20.9999 19.7125 20.3725 18.7416C19.745 17.7707 18.8505 17.0017 17.7964 16.527L18.6164 14.703H18.6174ZM17.9294 3.413C18.9369 3.8283 19.7983 4.53354 20.4044 5.43923C21.0104 6.34492 21.3338 7.41024 21.3334 8.5C21.3338 9.87233 20.8211 11.1952 19.8959 12.2088C18.9708 13.2224 17.7 13.8535 16.3334 13.978V11.965C17.0743 11.8589 17.7617 11.518 18.2947 10.9925C18.8276 10.4669 19.1781 9.78432 19.2945 9.04493C19.411 8.30555 19.2874 7.5483 18.9418 6.88435C18.5962 6.22041 18.0468 5.68475 17.3744 5.356L17.9294 3.413Z"></path>
</symbol>
<symbol id="icon-twitter" viewBox="0 0 31 32">
<path fill="#7b61ff" style="fill: var(--color2, #7b61ff)" d="M28.654 7.716c-0.987 0.437-2.034 0.723-3.106 0.851 1.13-0.676 1.975-1.739 2.379-2.992-1.060 0.631-2.223 1.073-3.434 1.312-0.814-0.871-1.892-1.448-3.068-1.643s-2.383 0.005-3.434 0.567-1.886 1.456-2.377 2.542c-0.49 1.086-0.608 2.304-0.335 3.464-2.15-0.108-4.253-0.666-6.173-1.64s-3.614-2.34-4.972-4.010c-0.481 0.825-0.733 1.764-0.732 2.719 0 1.875 0.954 3.531 2.405 4.501-0.859-0.027-1.698-0.259-2.449-0.676v0.067c0 1.249 0.432 2.459 1.223 3.425s1.891 1.63 3.115 1.877c-0.797 0.216-1.633 0.248-2.444 0.093 0.345 1.075 1.018 2.015 1.923 2.688s2 1.047 3.128 1.068c-1.122 0.881-2.406 1.532-3.779 1.916s-2.809 0.494-4.225 0.323c2.472 1.59 5.349 2.433 8.288 2.431 9.946 0 15.386-8.24 15.386-15.386 0-0.233-0.006-0.468-0.017-0.698 1.059-0.765 1.972-1.713 2.698-2.799l-0.001-0.001z"></path>
</symbol>
</defs>
</svg>
